{"accessors" : [{"bufferView" : 0, "byteOffset" : 0, "componentType" : 5123, "count" : 58944, "type" : "SCALAR", "max" : [49051], "min" : [0]}, {"bufferView" : 1, "byteOffset" : 0, "componentType" : 5126, "count" : 49052, "type" : "VEC3", "max" : [5.0055975914001465, 5.576054573059082, 0.4154217541217804], "min" : [-4.984510898590088, -5.576054573059082, 0.038673363626003265], "name" : "POSITION"}, {"bufferView" : 1, "byteOffset" : 12, "componentType" : 5126, "count" : 49052, "type" : "VEC3", "max" : [1.0000044107437134, 1.0000044107437134, 1.0000044107437134], "min" : [-1.0000044107437134, -1.0000044107437134, -1.0000044107437134], "name" : "NORMAL"}, {"bufferView" : 1, "byteOffset" : 24, "componentType" : 5126, "count" : 49052, "type" : "VEC2", "max" : [1.0411587953567505, 1.0000003576278687], "min" : [0, 0.010013577528297901], "name" : "TEXCOORD_0"}, {"bufferView" : 0, "byteOffset" : 117888, "componentType" : 5123, "count" : 4224, "type" : "SCALAR", "max" : [3451], "min" : [0]}, {"bufferView" : 2, "byteOffset" : 0, "componentType" : 5126, "count" : 3452, "type" : "VEC3", "max" : [0.9933515787124634, 0.9933514595031738, 0.41138842701911926], "min" : [-0.9933515787124634, -0.9933515787124634, 0.038673363626003265], "name" : "POSITION"}, {"bufferView" : 2, "byteOffset" : 12, "componentType" : 5126, "count" : 3452, "type" : "VEC3", "max" : [1.0000044107437134, 1.0000044107437134, 1.0000044107437134], "min" : [-1.0000044107437134, -1.0000044107437134, -1.0000044107437134], "name" : "NORMAL"}, {"bufferView" : 2, "byteOffset" : 24, "componentType" : 5126, "count" : 3452, "type" : "VEC2", "max" : [1.0000001192092896, 1.0000003576278687], "min" : [0, 0.010013577528297901], "name" : "TEXCOORD_0"}], "asset" : {"generator" : "Aspose.3D 23.4.0", "version" : "2.0"}, "buffers" : [{"uri" : "data:application/octet-stream;base64,", "byteLength" : 2147724}], "bufferViews" : [{"buffer" : 0, "byteOffset" : 0, "byteLength" : 126336, "target" : 34963}, {"buffer" : 0, "byteOffset" : 126340, "byteLength" : 1886208, "byteStride" : 32, "target" : 34962}, {"buffer" : 0, "byteOffset" : 2012552, "byteLength" : 135168, "byteStride" : 32, "target" : 34962}], "materials" : [{"name" : "Material.002", "pbrMetallicRoughness" : {"baseColorFactor" : [0.119537, 0.701101, 0.964686, 1], "metallicFactor" : 0, "roughnessFactor" : 0.86662048367891}, "emissiveFactor" : [0.023907400000000002, 0.1402202, 0.19293720000000003], "alphaMode" : "OPAQUE", "doubleSided" : true}, {"name" : "Material.001", "pbrMetallicRoughness" : {"baseColorFactor" : [0.0290993, 0.0290993, 0.0290994, 1], "metallicFactor" : 0, "roughnessFactor" : 0.9925961359107832}, "emissiveFactor" : [0, 0, 0], "alphaMode" : "OPAQUE", "doubleSided" : true}], "meshes" : [{"primitives" : [{"attributes" : {"POSITION" : 1, "NORMAL" : 2, "TEXCOORD_0" : 3}, "indices" : 0, "material" : 0, "mode" : 4}]}, {"primitives" : [{"attributes" : {"POSITION" : 5, "NORMAL" : 6, "TEXCOORD_0" : 7}, "indices" : 4, "material" : 1, "mode" : 4}]}], "nodes" : [{"mesh" : 0, "name" : "React-Logo_Material.002_0"}, {"children" : [0], "matrix" : [-1.711996642116335E-06, -39.16591644287099, 2.334470258589388E-06, 0, -6.3809378289318055E-06, -2.334469980298814E-06, -39.165916442870504, 0, 52.73355865478441, -2.305057652342795E-06, -8.591387214495791E-06, 0, 0, 7.935468673706055, 0, 1], "name" : "React-Logo"}, {"mesh" : 1, "name" : "Backdrop_Material.001_0"}, {"children" : [2], "matrix" : [1.871245785405856E-05, -247.85401916503827, -7.386625370483845E-06, 0, -1.0834044233257942E-05, 7.386624531205466E-06, -247.85401916503872, 0, 52.73355865478496, 3.9812729899841045E-06, -2.305057151774401E-06, 0, -17.09052848815918, 7.935468673706055, 0, 1], "name" : "Backdrop"}, {"children" : [1, 3], "name" : "RootNode"}, {"children" : [4], "matrix" : [0.009999999776482582, 0, 0, 0, 0, 0, 0.009999999776482582, 0, 0, -0.009999999776482582, 0, 0, 0, 0, 0, 1], "name" : "react-logo-circle.fbx"}, {"children" : [5], "matrix" : [-2.220446049250313E-16, -2.220446049250313E-16, 1, 0, 1, -4.930380657631324E-32, 2.220446049250313E-16, 0, 0, 1, 2.220446049250313E-16, 0, 0, 0, 0, 1], "name" : "Sketchfab_model"}], "scene" : 0, "scenes" : [{"nodes" : [6]}]}